Coordinates
version=1
nRows=11
nColumns=63
inDegrees=yes

Units are S.I. units (second, meters, Newtons, ...)
If the header above contains a line with 'inDegrees', this indicates whether rotational values are in degrees (yes) or radians (no).

endheader
time	pelvis_tilt	pelvis_list	pelvis_rotation	pelvis_tx	pelvis_ty	pelvis_tz	hip_flexion_r	hip_adduction_r	hip_rotation_r	knee_angle_r	knee_angle_r_beta	ankle_angle_r	subtalar_angle_r	mtp_angle_r	hip_flexion_l	hip_adduction_l	hip_rotation_l	knee_angle_l	knee_angle_l_beta	ankle_angle_l	subtalar_angle_l	mtp_angle_l	L5_S1_Flex_Ext	L5_S1_Lat_Bending	L5_S1_axial_rotation	L4_L5_Flex_Ext	L4_L5_Lat_Bending	L4_L5_axial_rotation	L3_L4_Flex_Ext	L3_L4_Lat_Bending	L3_L4_axial_rotation	L2_L3_Flex_Ext	L2_L3_Lat_Bending	L2_L3_axial_rotation	L1_L2_Flex_Ext	L1_L2_Lat_Bending	L1_L2_axial_rotation	L1_T12_Flex_Ext	L1_T12_Lat_Bending	L1_T12_axial_rotation	Abs_r3	Abs_r2	Abs_r1	Abs_t1	Abs_t2	neck_flexion	neck_bending	neck_rotation	arm_flex_r	arm_add_r	arm_rot_r	elbow_flex_r	pro_sup_r	wrist_flex_r	wrist_dev_r	arm_flex_l	arm_add_l	arm_rot_l	elbow_flex_l	pro_sup_l	wrist_flex_l	wrist_dev_l
      6.71186441	      2.27334486	     -1.00255877	    104.55233340	      0.12217505	      0.42064524	      1.05430782	     -0.25520899	     -0.88249761	    -23.48197231	     12.91131860	      0.22534502	     25.10482221	      3.41435751	      0.00000000	      1.10704941	     -0.06042485	      7.85228648	      8.43243789	      0.14717381	     25.62262330	      7.28523324	      0.00000000	     -0.08500418	      0.18101819	     -1.47581083	     -0.15786125	      0.24075419	     -1.56804901	     -0.13965336	      0.44012762	     -1.56804901	     -0.09715127	      0.44012762	     -1.29133448	     -0.07893488	      0.36913229	     -1.19909630	     -0.04857139	      0.28039717	     -1.10685812	     -0.60717632	      2.04771396	     -8.20801709	      0.00000000	      0.00000000	      7.41274941	      8.34909966	     19.61947510	     32.92295864	     -0.61080033	     21.57174675	    105.32893309	     68.08965896	     -3.69687600	     27.97631497	    -10.80230558	    -13.67931081	     -7.51799806	    131.20699340	     77.79251158	    -11.84637331	     14.88697671
      6.72881356	      2.30212638	     -0.56749322	    105.70237410	      0.12143148	      0.42079968	      1.05791708	     -0.66690764	     -0.69525384	    -24.48425173	     12.75114907	      0.22254953	     24.78960872	      3.22913922	      0.00000000	      1.17334927	     -0.19373944	      8.11118513	      8.86914160	      0.15479572	     25.56692605	      7.91398582	      0.00000000	     -0.10874358	      0.19133114	     -1.22453152	     -0.20194771	      0.25447042	     -1.30106474	     -0.17865484	      0.46520254	     -1.30106474	     -0.12428304	      0.46520254	     -1.07146508	     -0.10097929	      0.39016246	     -0.99493186	     -0.06213608	      0.29637194	     -0.91839864	     -0.77674455	      2.16437613	     -6.81047698	      0.00000000	      0.00000000	      5.95738609	      8.42806189	     17.89297391	     32.90547944	     -1.55740983	     22.00260853	    104.84092185	     65.93981143	     -6.70085668	     27.97080623	     -5.89553324	    -13.70019405	     -5.96966146	    130.07253539	     75.43760115	    -12.39558309	     17.83254699
      6.74576271	      2.32871391	     -0.21666611	    106.60891375	      0.12093889	      0.42098235	      1.06136459	     -0.95398411	     -0.53990339	    -25.15208541	     12.59997366	      0.21991103	     24.49758206	      3.06087822	      0.00000000	      1.28669423	     -0.31241274	      8.03706450	      9.21383539	      0.16081176	     25.57346122	      8.74608922	      0.00000000	     -0.12997731	      0.20368711	     -0.92360102	     -0.24138086	      0.27090386	     -0.98132609	     -0.21353972	      0.49524485	     -0.98132609	     -0.14855107	      0.49524485	     -0.80815090	     -0.12069693	      0.41535876	     -0.75042583	     -0.07426904	      0.31551134	     -0.69270077	     -0.92841493	      2.30414937	     -5.13679181	      0.00000000	      0.00000000	      4.88670421	      8.15099570	     15.55129301	     32.49561500	     -2.43346443	     22.15920862	    105.24905124	     62.78984418	    -11.42916543	     26.74959827	      0.24007471	    -13.14889976	     -3.19457086	    127.63793464	     73.92397986	    -13.41953273	     20.16134601
      6.76271186	      2.42651321	      0.12742055	    107.65071797	      0.12037342	      0.42118471	      1.06467010	     -1.30551249	     -0.22265895	    -25.69011405	     12.21006674	      0.21310587	     24.19604726	      2.63665492	      0.00000000	      1.45735145	     -0.50528487	      8.31772677	      9.53977746	      0.16650053	     25.68636865	      9.55938633	      0.00000000	     -0.15950988	      0.22580624	     -0.69426704	     -0.29622579	      0.30032230	     -0.73765873	     -0.26205878	      0.54902529	     -0.73765873	     -0.18230384	      0.54902529	     -0.60748366	     -0.14812087	      0.46046408	     -0.56409197	     -0.09114394	      0.34977387	     -0.52070028	     -1.13936310	      2.55436535	     -3.86130498	      0.00000000	      0.00000000	      4.27967912	      8.24649471	     13.62560669	     31.87644077	     -3.04837612	     21.75429561	    105.95419995	     61.02296073	    -14.74613569	     24.60443076	      6.97261959	    -11.80420152	      0.10039444	    123.80608827	     73.38364776	    -14.04509130	     20.70516066
      6.77966102	      2.43113777	      0.33799282	    108.11136546	      0.12048599	      0.42115877	      1.06734002	     -1.45724610	     -0.09727726	    -25.63082371	     11.97382020	      0.20898259	     24.27761745	      2.46824407	      0.00000000	      1.61009901	     -0.58285908	      8.04233902	      9.74702100	      0.17011761	     25.91210466	     10.48657979	      0.00000000	     -0.17972057	      0.23571458	     -0.42514256	     -0.33375907	      0.31350039	     -0.45171397	     -0.29526293	      0.57311642	     -0.45171397	     -0.20540264	      0.57311642	     -0.37199974	     -0.16688852	      0.48066917	     -0.34542833	     -0.10269233	      0.36512188	     -0.31885692	     -1.28372607	      2.66645045	     -2.36451536	      0.00000000	      0.00000000	      4.34991337	      7.87334787	     11.80560829	     31.36406045	     -3.69254268	     21.71929288	    106.94717233	     57.82332867	    -19.02230332	     21.31980603	     13.47264790	    -10.12608112	      3.52988310	    119.17686340	     72.47208790	    -14.95600617	     19.44084668
      6.79661017	      2.40343800	      0.42465496	    108.94496473	      0.12034231	      0.42096457	      1.06964069	     -1.62436898	      0.02463290	    -25.87601101	     11.55910064	      0.20174436	     24.51558217	      2.33672730	      0.00000000	      1.89954052	     -0.58781859	      8.28491011	      9.95858456	      0.17381009	     26.14661824	     11.35435295	      0.00000000	     -0.19161739	      0.23283435	     -0.31693481	     -0.35585265	      0.30966968	     -0.33674324	     -0.31480821	      0.56611343	     -0.33674324	     -0.21899951	      0.56611343	     -0.27731796	     -0.17793591	      0.47479580	     -0.25750954	     -0.10949018	      0.36066040	     -0.23770111	     -1.36870385	      2.63386869	     -1.76269635	      0.00000000	      0.00000000	      4.93279211	      7.75142717	     10.66884445	     30.83724276	     -3.97064262	     21.28667311	    107.74669483	     55.77926693	    -20.54690560	     18.45413837	     18.72558965	     -8.37861565	      5.83662036	    114.89936339	     72.16237536	    -14.80277539	     17.55578841
      6.81355932	      2.37822916	      0.44134212	    109.82655445	      0.12022628	      0.42075441	      1.07155731	     -1.78597797	      0.15771602	    -26.12916255	     11.06982643	      0.19320492	     24.81522221	      2.23339222	      0.00000000	      2.23409780	     -0.56300211	      8.81472495	     10.17020758	      0.17750361	     26.33923450	     11.94037565	      0.00000000	     -0.19715823	      0.22797152	     -0.32087854	     -0.36614254	      0.30320212	     -0.34093345	     -0.32391125	      0.55428994	     -0.34093345	     -0.22533214	      0.55428994	     -0.28076872	     -0.18308113	      0.46487951	     -0.26071381	     -0.11265621	      0.35312788	     -0.24065890	     -1.40828150	      2.57885938	     -1.78463017	      0.00000000	      0.00000000	      5.74533122	      7.86557282	     10.52076412	     30.49888388	     -3.97890383	     20.78934120	    108.35844734	     55.46815965	    -20.69813741	     17.21253391	     22.07405587	     -7.16407511	      6.86242197	    112.11421749	     72.66856386	    -14.28295817	     15.49515573
      6.83050847	      2.29282646	      0.36961530	    110.34934196	      0.12043293	      0.42056764	      1.07297533	     -1.88377753	      0.17706172	    -26.19166343	     10.59182308	      0.18486219	     25.14692892	      2.32023888	      0.00000000	      2.53878032	     -0.45609835	      9.12507349	     10.32766076	      0.18025168	     26.42621131	     12.32840978	      0.00000000	     -0.19068332	      0.21779914	     -0.33530440	     -0.35411800	      0.28967285	     -0.35626092	     -0.31327363	      0.52955682	     -0.35626092	     -0.21793197	      0.52955682	     -0.29339135	     -0.17706853	      0.44413600	     -0.27243482	     -0.10895645	      0.33737086	     -0.25147830	     -1.36203191	      2.46378740	     -1.86486246	      0.00000000	      0.00000000	      6.63197154	      7.75827122	     10.99372522	     30.31380572	     -3.90327325	     20.54602924	    108.83892060	     55.24279536	    -20.50921582	     16.68044376	     23.38471370	     -6.78825045	      6.86716284	    111.41024408	     73.12381903	    -13.93638205	     13.57872081
      6.84745763	      2.22981831	      0.27476969	    110.85750394	      0.12065297	      0.42047442	      1.07416163	     -1.99989578	      0.21068023	    -26.40143886	     10.10465988	      0.17635958	     25.34873662	      2.59975706	      0.00000000	      2.81170456	     -0.38290040	      9.40702635	     10.39692205	      0.18146052	     26.39758423	     12.75115704	      0.00000000	     -0.16846227	      0.20556232	     -0.42908452	     -0.31285128	      0.27339789	     -0.45590230	     -0.27676666	      0.49980424	     -0.45590230	     -0.19253553	      0.49980424	     -0.37544895	     -0.15643406	      0.41918269	     -0.34863117	     -0.09625934	      0.31841604	     -0.32181339	     -1.20330915	      2.32536213	     -2.38643935	      0.00000000	      0.00000000	      7.13932241	      7.65551231	     11.70561270	     30.37956061	     -3.86668637	     20.83456579	    108.96625186	     55.04645386	    -19.49821645	     16.58824204	     22.73944593	     -7.19585351	      5.98732757	    112.51843768	     73.52718662	    -13.54768702	     10.80860064
      6.86440678	      2.16210295	      0.20232849	    111.11027452	      0.12116859	      0.42036422	      1.07518286	     -2.13583880	      0.23655319	    -26.74624209	      9.63134379	      0.16809866	     25.47412557	      3.09934580	      0.00000000	      3.02781208	     -0.31794393	      9.57332638	     10.46418772	      0.18263453	     26.38178525	     12.92740669	      0.00000000	     -0.15257165	      0.19612276	     -0.58186611	     -0.28334081	      0.26084327	     -0.61823275	     -0.25065996	      0.47685287	     -0.61823275	     -0.17437414	      0.47685287	     -0.50913285	     -0.14167803	      0.39993352	     -0.47276622	     -0.08717944	      0.30379415	     -0.43639959	     -1.08980402	      2.21857984	     -3.23616476	      0.00000000	      0.00000000	      7.53861153	      7.53146419	     13.07621158	     30.72195336	     -3.66321858	     21.75574673	    108.76342362	     55.26902601	    -17.50300297	     16.86474178	     20.34033229	     -8.27891219	      4.06758748	    115.40576921	     73.15884074	    -13.35458824	      7.95594175
      6.88135593	      1.98660579	      0.14305825	    111.24331853	      0.12163200	      0.42033942	      1.07580341	     -2.36497762	      0.10280597	    -27.55667076	      9.21618843	      0.16085283	     25.61004886	      4.35224833	      0.00000000	      3.16612338	     -0.14528971	      9.78939418	     10.55109271	      0.18415131	     26.30665794	     12.96022092	      0.00000000	     -0.13124624	      0.17524309	     -0.77278582	     -0.24373739	      0.23307332	     -0.82108494	     -0.21562444	      0.42608606	     -0.82108494	     -0.15000132	      0.42608606	     -0.67618760	     -0.12187526	      0.35735572	     -0.62788848	     -0.07499410	      0.27145155	     -0.57958937	     -0.93747874	      1.98238494	     -4.29800291	      0.00000000	      0.00000000	      7.63617812	      7.25240708	     14.37625293	     31.07289030	     -3.35576133	     22.98903587	    108.16557997	     57.00707033	    -13.66248266	     17.14250738	     16.75320954	     -9.73165595	      1.63090882	    119.10509711	     71.20727300	    -13.39338739	      4.49012042
